<?xml version="1.0" encoding="utf-8"?>
<!-- Generator: Adobe Illustrator 16.0.0, SVG Export Plug-In . SVG Version: 6.00 Build 0)  -->
<!DOCTYPE svg PUBLIC "-//W3C//DTD SVG 1.1//EN" "http://www.w3.org/Graphics/SVG/1.1/DTD/svg11.dtd">
<svg version="1.1" id="Layer_1" xmlns="http://www.w3.org/2000/svg" xmlns:xlink="http://www.w3.org/1999/xlink" x="0px" y="0px"
	 width="800px" height="600px" viewBox="0 0 800 600" enable-background="new 0 0 800 600" xml:space="preserve">
<g id="backgournd">
	<rect fill="#E0E0E0" width="800" height="600"/>
</g>
<g id="Layer_2" display="none">
</g>
<g id="Layer_5">
</g>
<g id="Layer_6">
</g>
<g id="Layer_4" display="none">
</g>
<g id="Layer_7" display="none">
</g>
<polygon fill="#C7C7C7" points="303.7,547.463 297.781,541.186 297.781,511.195 303.7,505.053 496.066,505.053 502.219,511.195 
	502.219,541.186 496.066,547.463 "/>
<polygon fill="#F7F7F7" points="303.701,545.404 297.781,539.125 297.781,509.133 303.701,502.993 496.066,502.993 502.219,509.133 
	502.219,539.125 496.066,545.404 "/>
<g enable-background="new    ">
	<path d="M240.919,255.352v-32.709h6.251v13.047h12.595v-13.047h6.251v32.709h-6.251v-14.044H247.17v14.044H240.919z"/>
	<path d="M276.522,244.479c0.09,4.893,2.265,6.796,4.893,6.796s3.851-1.178,5.255-2.809l4.077,2.536
		c-2.175,3.353-5.346,4.803-9.876,4.803c-6.116,0-9.967-4.757-9.967-12.232c0-7.475,3.851-12.231,10.238-12.231
		c6.162-0.045,9.604,5.165,9.604,10.827v2.311H276.522z M285.583,240.673c-0.091-3.262-1.812-5.164-4.53-5.164
		s-4.44,1.902-4.53,5.164H285.583z"/>
	<path d="M292.919,259.157c0.861,0.181,1.54,0.181,2.355,0.181c1.948,0,3.036-0.543,3.715-1.857
		c0.544-1.132,0.906-1.812,0.906-2.763c0-0.861-0.453-1.857-0.725-2.81l-6.297-20.114h5.663l3.896,14.497h0.09l4.032-14.497h5.618
		l-7.43,23.603c-2.492,6.751-4.485,8.562-9.106,8.562c-1.359,0-2.039-0.091-2.718-0.181V259.157z"/>
	<path d="M330.062,255.352v-32.709h6.524l12.866,22.289h0.09v-22.289h5.89v32.709h-6.025l-13.365-23.286h-0.09v23.286H330.062z"/>
	<path d="M365.801,244.479c0.09,4.893,2.265,6.796,4.893,6.796s3.851-1.178,5.255-2.809l4.077,2.536
		c-2.175,3.353-5.346,4.803-9.876,4.803c-6.116,0-9.967-4.757-9.967-12.232c0-7.475,3.851-12.231,10.238-12.231
		c6.162-0.045,9.604,5.165,9.604,10.827v2.311H365.801z M374.862,240.673c-0.091-3.262-1.812-5.164-4.53-5.164
		s-4.44,1.902-4.53,5.164H374.862z"/>
	<path d="M382.198,231.794h5.346l3.216,14.678h0.091l3.398-14.678h5.209l3.263,14.678h0.09l3.353-14.678h5.346l-6.07,23.558h-5.074
		l-3.488-14.679h-0.091l-3.443,14.679h-5.074L382.198,231.794z"/>
	<path d="M438.367,235.6l5.617-12.957h6.524l-9.016,19.662v13.047h-6.252v-13.047l-9.015-19.662h6.523L438.367,235.6z"/>
	<path d="M459.793,231.341c6.388,0,10.238,4.757,10.238,12.231c0,7.476-3.851,12.232-10.238,12.232s-10.238-4.757-10.238-12.232
		C449.555,236.098,453.405,231.341,459.793,231.341z M459.793,235.871c-3.126,0-4.621,2.446-4.621,7.701
		c0,5.256,1.495,7.702,4.621,7.702s4.621-2.446,4.621-7.702C464.414,238.317,462.919,235.871,459.793,235.871z"/>
	<path d="M473.652,255.352v-23.558h5.165v4.032h0.091c1.359-2.81,3.262-4.395,6.613-4.485v5.935
		c-0.271-0.045-0.588-0.045-0.996-0.045c-2.809,0-5.255,3.216-5.255,3.806v14.315H473.652z"/>
	<path d="M489.099,255.352v-32.709h5.618v18.257h0.181l6.932-9.105h6.433l-6.932,8.789l7.43,14.769h-5.979l-5.21-10.556
		l-2.854,3.308v7.248H489.099z"/>
	<path d="M515.553,244.479c0.091,4.893,2.266,6.796,4.893,6.796c2.628,0,3.852-1.178,5.256-2.809l4.077,2.536
		c-2.175,3.353-5.346,4.803-9.876,4.803c-6.116,0-9.967-4.757-9.967-12.232c0-7.475,3.851-12.231,10.238-12.231
		c6.162-0.045,9.604,5.165,9.604,10.827v2.311H515.553z M524.613,240.673c-0.09-3.262-1.812-5.164-4.529-5.164
		c-2.719,0-4.44,1.902-4.531,5.164H524.613z"/>
	<path d="M534.033,255.352v-23.558h5.165v4.032h0.091c1.359-2.81,3.262-4.395,6.613-4.485v5.935
		c-0.271-0.045-0.588-0.045-0.996-0.045c-2.809,0-5.255,3.216-5.255,3.806v14.315H534.033z"/>
	<path d="M550.568,255.352h-2.719v-6.433h6.252v6.433l-2.899,6.796h-2.944L550.568,255.352z"/>
</g>
<g enable-background="new    ">
	<path d="M142.489,309.707v-32.709h5.618v11.688c1.722-1.45,4.032-2.99,6.795-2.99c4.711,0,6.977,3.081,6.977,7.883v16.128h-5.617
		v-15.312c0-3.171-0.997-4.168-2.899-4.168c-2.447,0-4.304,1.404-5.255,2.492v16.988H142.489z"/>
	<path d="M176.1,285.696c6.388,0,10.239,4.757,10.239,12.231c0,7.476-3.851,12.232-10.239,12.232s-10.238-4.757-10.238-12.232
		C165.862,290.453,169.712,285.696,176.1,285.696z M176.1,290.227c-3.126,0-4.621,2.446-4.621,7.701
		c0,5.256,1.495,7.702,4.621,7.702s4.621-2.446,4.621-7.702C180.721,292.673,179.226,290.227,176.1,290.227z"/>
	<path d="M187.876,286.149h5.346l3.216,14.678h0.091l3.398-14.678h5.209l3.262,14.678h0.09l3.353-14.678h5.346l-6.07,23.558h-5.074
		l-3.488-14.679h-0.091l-3.443,14.679h-5.074L187.876,286.149z"/>
	<path d="M246.356,309.707l-0.362-2.039c-2.265,1.541-4.395,2.492-7.339,2.492c-4.258,0-6.388-3.035-6.388-6.252
		c0-5.346,4.349-8.154,13.5-9.242v-1.993c0-1.812-1.45-2.809-3.443-2.809c-2.627,0-4.077,1.404-5.165,2.899L233.535,290
		c1.45-2.491,5.346-4.395,8.789-4.304c6.343,0.136,9.061,2.446,9.061,9.514v11.1c0,1.178,0.09,2.355,0.453,3.397H246.356z
		 M245.767,298.427c-3.76,0.725-7.883,1.495-7.883,4.802c0,1.767,1.132,2.764,2.718,2.764c1.767,0,3.987-1.495,5.165-2.492V298.427z
		"/>
	<path d="M256.637,309.707v-23.558h5.165v4.032h0.09c1.359-2.81,3.262-4.395,6.614-4.485v5.935
		c-0.271-0.045-0.589-0.045-0.997-0.045c-2.809,0-5.255,3.216-5.255,3.806v14.315H256.637z"/>
	<path d="M275.889,298.834c0.09,4.893,2.265,6.796,4.893,6.796s3.851-1.178,5.255-2.809l4.077,2.536
		c-2.175,3.353-5.346,4.803-9.876,4.803c-6.116,0-9.967-4.757-9.967-12.232c0-7.475,3.851-12.231,10.238-12.231
		c6.162-0.045,9.604,5.165,9.604,10.827v2.311H275.889z M284.949,295.028c-0.091-3.262-1.812-5.164-4.53-5.164
		s-4.44,1.902-4.53,5.164H284.949z"/>
	<path d="M306.101,313.513c0.861,0.181,1.54,0.181,2.355,0.181c1.948,0,3.036-0.543,3.715-1.857
		c0.543-1.132,0.906-1.812,0.906-2.763c0-0.861-0.453-1.857-0.725-2.81l-6.297-20.114h5.663l3.896,14.497h0.09l4.032-14.497h5.618
		l-7.43,23.603c-2.492,6.751-4.485,8.562-9.106,8.562c-1.359,0-2.039-0.091-2.718-0.181V313.513z"/>
	<path d="M337.084,285.696c6.388,0,10.239,4.757,10.239,12.231c0,7.476-3.851,12.232-10.239,12.232s-10.238-4.757-10.238-12.232
		C326.846,290.453,330.697,285.696,337.084,285.696z M337.084,290.227c-3.126,0-4.621,2.446-4.621,7.701
		c0,5.256,1.495,7.702,4.621,7.702s4.621-2.446,4.621-7.702C341.706,292.673,340.21,290.227,337.084,290.227z"/>
	<path d="M370.696,286.149v23.558h-5.165v-2.537c-2.084,1.45-4.485,2.99-7.249,2.99c-4.711,0-6.977-3.081-6.977-7.883v-16.128h5.618
		v15.312c0,3.171,0.997,4.168,2.899,4.168c2.446,0,4.304-1.404,5.255-2.492v-16.988H370.696z"/>
	<path d="M396.831,290.68v19.027h-5.617V290.68h-3.262v-4.53h3.217v-2.899c0-5.074,2.039-6.705,6.66-6.705h3.715v4.53h-1.541
		c-2.355,0-3.171,0.725-3.171,2.537v2.537h4.757v4.53H396.831z"/>
	<path d="M409.197,298.834c0.09,4.893,2.265,6.796,4.893,6.796c2.627,0,3.85-1.178,5.255-2.809l4.077,2.536
		c-2.175,3.353-5.346,4.803-9.876,4.803c-6.116,0-9.967-4.757-9.967-12.232c0-7.475,3.851-12.231,10.238-12.231
		c6.161-0.045,9.604,5.165,9.604,10.827v2.311H409.197z M418.258,295.028c-0.092-3.262-1.812-5.164-4.531-5.164
		c-2.718,0-4.439,1.902-4.529,5.164H418.258z"/>
	<path d="M431.846,298.834c0.09,4.893,2.265,6.796,4.893,6.796c2.627,0,3.85-1.178,5.255-2.809l4.077,2.536
		c-2.175,3.353-5.346,4.803-9.876,4.803c-6.116,0-9.967-4.757-9.967-12.232c0-7.475,3.851-12.231,10.238-12.231
		c6.161-0.045,9.604,5.165,9.604,10.827v2.311H431.846z M440.906,295.028c-0.092-3.262-1.812-5.164-4.531-5.164
		c-2.718,0-4.439,1.902-4.529,5.164H440.906z"/>
	<path d="M451.277,309.707v-32.709h5.617v32.709H451.277z"/>
	<path d="M463.869,281.8v-5.255h5.618v5.255H463.869z M469.487,309.707h-5.618v-23.558h5.618V309.707z"/>
	<path d="M475.873,309.707v-23.558h5.164v2.537c2.084-1.45,4.485-2.99,7.249-2.99c4.712,0,6.977,3.081,6.977,7.883v16.128h-5.618
		v-15.312c0-3.171-0.996-4.168-2.898-4.168c-2.447,0-4.305,1.404-5.256,2.492v16.988H475.873z"/>
	<path d="M520.268,289.502c-1.314,0-2.764,0-3.625,0.543c0.725,0.997,1.27,2.356,1.27,4.168c0,4.44-2.99,7.611-8.881,7.611
		c-2.445,0-4.394,0.091-4.394,1.45c0,3.805,15.493-1.359,15.493,8.063c0,3.353-3.397,6.977-10.918,6.977
		c-6.342,0-10.51-1.902-10.51-5.617c0-2.945,2.22-4.35,4.258-4.35v-0.09c-1.087-0.68-3.488-1.269-3.488-3.806
		c0-2.266,2.628-3.987,3.67-4.304c-1.948-1.586-3.488-3.398-3.488-6.252c0-4.123,3.171-8.2,9.287-8.2
		c1.993,0,4.35,0.815,5.799,2.084c1.088-1.45,2.854-2.175,5.527-2.084V289.502z M503.867,311.973c0,1.812,1.541,2.627,6.252,2.627
		c3.625,0,4.848-1.812,4.848-2.627c0-1.088-1.676-2.719-7.113-2.719C504.773,309.254,503.867,310.976,503.867,311.973z
		 M508.896,289.864c-2.401,0-4.078,1.722-4.078,3.896c0,2.175,1.677,3.896,4.078,3.896c2.129,0,3.851-1.722,3.851-3.896
		C512.747,291.586,511.025,289.864,508.896,289.864z"/>
	<path d="M538.428,286.149v-7.792h5.619v7.792h4.621v4.53h-4.621v13.319c0,1.269,0.633,1.631,2.037,1.631
		c0.861,0,1.768-0.272,2.584-0.453v4.621c-1.541,0.181-2.9,0.362-4.441,0.362c-4.168,0-5.799-2.084-5.799-5.437V290.68h-3.262v-4.53
		H538.428z"/>
	<path d="M561.033,285.696c6.387,0,10.238,4.757,10.238,12.231c0,7.476-3.852,12.232-10.238,12.232
		c-6.389,0-10.24-4.757-10.24-12.232C550.793,290.453,554.645,285.696,561.033,285.696z M561.033,290.227
		c-3.127,0-4.621,2.446-4.621,7.701c0,5.256,1.494,7.702,4.621,7.702c3.125,0,4.621-2.446,4.621-7.702
		C565.654,292.673,564.158,290.227,561.033,290.227z"/>
	<path d="M594.645,309.707h-4.758l-0.271-2.537c-1.992,1.948-3.85,2.99-6.387,2.99c-6.252,0-9.424-5.527-9.424-12.866
		c0-5.799,3.352-11.598,9.424-11.598c1.902,0,4.574,1.133,5.707,2.628h0.092v-11.326h5.617V309.707z M589.027,292.22
		c-1.133-1.042-2.537-1.993-4.35-1.993c-3.354,0-5.256,2.718-5.256,7.701s1.902,7.702,5.256,7.702c2.4,0,3.172-1.178,4.35-2.084
		V292.22z"/>
	<path d="M612.445,309.707l-0.363-2.039c-2.264,1.541-4.393,2.492-7.338,2.492c-4.26,0-6.389-3.035-6.389-6.252
		c0-5.346,4.35-8.154,13.5-9.242v-1.993c0-1.812-1.449-2.809-3.441-2.809c-2.629,0-4.078,1.404-5.166,2.899L599.625,290
		c1.449-2.491,5.346-4.395,8.789-4.304c6.342,0.136,9.061,2.446,9.061,9.514v11.1c0,1.178,0.09,2.355,0.453,3.397H612.445z
		 M611.855,298.427c-3.76,0.725-7.883,1.495-7.883,4.802c0,1.767,1.133,2.764,2.719,2.764c1.768,0,3.986-1.495,5.164-2.492V298.427z
		"/>
	<path d="M620.643,313.513c0.859,0.181,1.539,0.181,2.355,0.181c1.947,0,3.035-0.543,3.715-1.857
		c0.543-1.132,0.906-1.812,0.906-2.763c0-0.861-0.453-1.857-0.725-2.81l-6.297-20.114h5.662l3.896,14.497h0.09l4.031-14.497h5.619
		l-7.43,23.603c-2.492,6.751-4.486,8.562-9.107,8.562c-1.357,0-2.037-0.091-2.717-0.181V313.513z"/>
	<path d="M646.779,298.698v-2.491c0-2.583,1.449-4.803,2.898-6.841c1.449-2.039,2.9-3.941,2.9-5.845
		c0-1.359-1.359-2.446-2.855-2.446c-2.129,0-3.488,2.084-3.76,3.987l-5.209-1.45c1.133-4.485,4.484-7.067,9.332-7.067
		c4.439,0,8.199,2.537,8.199,7.249c0,2.989-1.631,5.028-3.262,6.931c-1.631,1.948-3.262,3.761-3.262,6.298v1.676H646.779z
		 M646.234,309.707v-6.433h6.252v6.433H646.234z"/>
</g>
<g>
	<path d="M356.458,514.316h4.128l4.92,17.354h-3.287l-0.961-3.744h-5.473l-1.031,3.744h-3.289L356.458,514.316z M356.506,525.189
		h4.032l-1.944-7.537h-0.048L356.506,525.189z"/>
	<path d="M367.762,531.67v-17.33h3.456l6.817,11.811h0.047V514.34h3.121v17.33h-3.193l-7.08-12.337h-0.048v12.337H367.762z"/>
	<path d="M383.625,514.34h3.601l2.593,5.354l2.593-5.354h3.6l-4.393,8.449l4.682,8.881h-3.602l-2.88-5.881l-2.881,5.881h-3.601
		l4.681-8.881L383.625,514.34z"/>
	<path d="M398.817,531.67v-17.33h3.312v17.33H398.817z"/>
	<path d="M411.876,531.91c-4.729,0-7.273-3.241-7.273-8.905s2.546-8.904,7.273-8.904c4.727,0,7.271,3.24,7.271,8.904
		S416.604,531.91,411.876,531.91z M411.876,516.885c-2.713,0-3.961,2.063-3.961,6.12c-0.049,4.058,1.225,6.12,3.961,6.12
		c2.711,0,3.959-2.062,3.959-6.12C415.835,518.948,414.587,516.885,411.876,516.885z"/>
	<path d="M431.292,514.34h3.312v10.851c0,5.063-3.12,6.721-6.647,6.721c-3.529,0-6.648-1.656-6.648-6.721V514.34h3.312v10.993
		c0,2.809,1.104,3.792,3.338,3.792c2.229,0,3.336-0.983,3.336-3.792L431.292,514.34L431.292,514.34z"/>
	<path d="M445.176,518.948c-0.504-1.345-1.535-2.256-3.096-2.256c-1.439,0-2.473,0.575-2.473,1.92c0,2.977,8.93,2.353,8.93,7.969
		c0,3.553-2.232,5.329-6.072,5.329c-2.832,0-5.496-1.585-6.479-4.104l2.735-1.2c0.791,1.633,1.824,2.713,3.769,2.713
		c1.655,0,2.928-0.624,2.928-2.305c0-3.409-8.928-2.735-8.928-8.064c0-3.097,2.592-4.849,5.592-4.849
		c2.785,0,5.088,1.393,6.121,3.912L445.176,518.948z"/>
</g>
</svg>
